<svg width="155" height="56" viewBox="0 0 155 56" fill="none" xmlns="http://www.w3.org/2000/svg">
<path d="M25.5391 27.0703V27.8789C25.5391 29.1758 25.3633 30.3398 25.0117 31.3711C24.6602 32.4023 24.1641 33.2812 23.5234 34.0078C22.8828 34.7266 22.1172 35.2773 21.2266 35.6602C20.3438 36.043 19.3633 36.2344 18.2852 36.2344C17.2148 36.2344 16.2344 36.043 15.3438 35.6602C14.4609 35.2773 13.6953 34.7266 13.0469 34.0078C12.3984 33.2812 11.8945 32.4023 11.5352 31.3711C11.1836 30.3398 11.0078 29.1758 11.0078 27.8789V27.0703C11.0078 25.7656 11.1836 24.6016 11.5352 23.5781C11.8867 22.5469 12.3828 21.668 13.0234 20.9414C13.6719 20.2148 14.4375 19.6602 15.3203 19.2773C16.2109 18.8945 17.1914 18.7031 18.2617 18.7031C19.3398 18.7031 20.3203 18.8945 21.2031 19.2773C22.0938 19.6602 22.8594 20.2148 23.5 20.9414C24.1484 21.668 24.6484 22.5469 25 23.5781C25.3594 24.6016 25.5391 25.7656 25.5391 27.0703ZM21.9883 27.8789V27.0469C21.9883 26.1406 21.9062 25.3438 21.7422 24.6562C21.5781 23.9688 21.3359 23.3906 21.0156 22.9219C20.6953 22.4531 20.3047 22.1016 19.8438 21.8672C19.3828 21.625 18.8555 21.5039 18.2617 21.5039C17.668 21.5039 17.1406 21.625 16.6797 21.8672C16.2266 22.1016 15.8398 22.4531 15.5195 22.9219C15.207 23.3906 14.9688 23.9688 14.8047 24.6562C14.6406 25.3438 14.5586 26.1406 14.5586 27.0469V27.8789C14.5586 28.7773 14.6406 29.5742 14.8047 30.2695C14.9688 30.957 15.2109 31.5391 15.5312 32.0156C15.8516 32.4844 16.2422 32.8398 16.7031 33.082C17.1641 33.3242 17.6914 33.4453 18.2852 33.4453C18.8789 33.4453 19.4062 33.3242 19.8672 33.082C20.3281 32.8398 20.7148 32.4844 21.0273 32.0156C21.3398 31.5391 21.5781 30.957 21.7422 30.2695C21.9062 29.5742 21.9883 28.7773 21.9883 27.8789ZM33.0977 33.5977C33.5117 33.5977 33.8789 33.5195 34.1992 33.3633C34.5195 33.1992 34.7695 32.9727 34.9492 32.6836C35.1367 32.3867 35.2344 32.0391 35.2422 31.6406H38.418C38.4102 32.5312 38.1719 33.3242 37.7031 34.0195C37.2344 34.707 36.6055 35.25 35.8164 35.6484C35.0273 36.0391 34.1445 36.2344 33.168 36.2344C32.1836 36.2344 31.3242 36.0703 30.5898 35.7422C29.8633 35.4141 29.2578 34.9609 28.7734 34.3828C28.2891 33.7969 27.9258 33.1172 27.6836 32.3438C27.4414 31.5625 27.3203 30.7266 27.3203 29.8359V29.4961C27.3203 28.5977 27.4414 27.7617 27.6836 26.9883C27.9258 26.207 28.2891 25.5273 28.7734 24.9492C29.2578 24.3633 29.8633 23.9062 30.5898 23.5781C31.3164 23.25 32.168 23.0859 33.1445 23.0859C34.1836 23.0859 35.0938 23.2852 35.875 23.6836C36.6641 24.082 37.2812 24.6523 37.7266 25.3945C38.1797 26.1289 38.4102 27 38.418 28.0078H35.2422C35.2344 27.5859 35.1445 27.2031 34.9727 26.8594C34.8086 26.5156 34.5664 26.2422 34.2461 26.0391C33.9336 25.8281 33.5469 25.7227 33.0859 25.7227C32.5938 25.7227 32.1914 25.8281 31.8789 26.0391C31.5664 26.2422 31.3242 26.5234 31.1523 26.8828C30.9805 27.2344 30.8594 27.6367 30.7891 28.0898C30.7266 28.5352 30.6953 29.0039 30.6953 29.4961V29.8359C30.6953 30.3281 30.7266 30.8008 30.7891 31.2539C30.8516 31.707 30.9688 32.1094 31.1406 32.4609C31.3203 32.8125 31.5664 33.0898 31.8789 33.293C32.1914 33.4961 32.5977 33.5977 33.0977 33.5977ZM46.2109 36.2344C45.2266 36.2344 44.3438 36.0781 43.5625 35.7656C42.7812 35.4453 42.1172 35.0039 41.5703 34.4414C41.0312 33.8789 40.6172 33.2266 40.3281 32.4844C40.0391 31.7344 39.8945 30.9375 39.8945 30.0938V29.625C39.8945 28.6641 40.0312 27.7852 40.3047 26.9883C40.5781 26.1914 40.9688 25.5 41.4766 24.9141C41.9922 24.3281 42.6172 23.8789 43.3516 23.5664C44.0859 23.2461 44.9141 23.0859 45.8359 23.0859C46.7344 23.0859 47.5312 23.2344 48.2266 23.5312C48.9219 23.8281 49.5039 24.25 49.9727 24.7969C50.4492 25.3438 50.8086 26 51.0508 26.7656C51.293 27.5234 51.4141 28.3672 51.4141 29.2969V30.7031H41.3359V28.4531H48.0977V28.1953C48.0977 27.7266 48.0117 27.3086 47.8398 26.9414C47.6758 26.5664 47.4258 26.2695 47.0898 26.0508C46.7539 25.832 46.3242 25.7227 45.8008 25.7227C45.3555 25.7227 44.9727 25.8203 44.6523 26.0156C44.332 26.2109 44.0703 26.4844 43.8672 26.8359C43.6719 27.1875 43.5234 27.6016 43.4219 28.0781C43.3281 28.5469 43.2812 29.0625 43.2812 29.625V30.0938C43.2812 30.6016 43.3516 31.0703 43.4922 31.5C43.6406 31.9297 43.8477 32.3008 44.1133 32.6133C44.3867 32.9258 44.7148 33.168 45.0977 33.3398C45.4883 33.5117 45.9297 33.5977 46.4219 33.5977C47.0312 33.5977 47.5977 33.4805 48.1211 33.2461C48.6523 33.0039 49.1094 32.6406 49.4922 32.1562L51.1328 33.9375C50.8672 34.3203 50.5039 34.6875 50.043 35.0391C49.5898 35.3906 49.043 35.6797 48.4023 35.9062C47.7617 36.125 47.0312 36.2344 46.2109 36.2344ZM60.1797 33.1406V27.4922C60.1797 27.0859 60.1133 26.7383 59.9805 26.4492C59.8477 26.1523 59.6406 25.9219 59.3594 25.7578C59.0859 25.5938 58.7305 25.5117 58.293 25.5117C57.918 25.5117 57.5938 25.5781 57.3203 25.7109C57.0469 25.8359 56.8359 26.0195 56.6875 26.2617C56.5391 26.4961 56.4648 26.7734 56.4648 27.0938H53.0898C53.0898 26.5547 53.2148 26.043 53.4648 25.5586C53.7148 25.0742 54.0781 24.6484 54.5547 24.2812C55.0312 23.9062 55.5977 23.6133 56.2539 23.4023C56.918 23.1914 57.6602 23.0859 58.4805 23.0859C59.4648 23.0859 60.3398 23.25 61.1055 23.5781C61.8711 23.9062 62.4727 24.3984 62.9102 25.0547C63.3555 25.7109 63.5781 26.5312 63.5781 27.5156V32.9414C63.5781 33.6367 63.6211 34.207 63.707 34.6523C63.793 35.0898 63.918 35.4727 64.082 35.8008V36H60.6719C60.5078 35.6562 60.3828 35.2266 60.2969 34.7109C60.2188 34.1875 60.1797 33.6641 60.1797 33.1406ZM60.625 28.2773L60.6484 30.1875H58.7617C58.3164 30.1875 57.9297 30.2383 57.6016 30.3398C57.2734 30.4414 57.0039 30.5859 56.793 30.7734C56.582 30.9531 56.4258 31.1641 56.3242 31.4062C56.2305 31.6484 56.1836 31.9141 56.1836 32.2031C56.1836 32.4922 56.25 32.7539 56.3828 32.9883C56.5156 33.2148 56.707 33.3945 56.957 33.5273C57.207 33.6523 57.5 33.7148 57.8359 33.7148C58.3438 33.7148 58.7852 33.6133 59.1602 33.4102C59.5352 33.207 59.8242 32.957 60.0273 32.6602C60.2383 32.3633 60.3477 32.082 60.3555 31.8164L61.2461 33.2461C61.1211 33.5664 60.9492 33.8984 60.7305 34.2422C60.5195 34.5859 60.25 34.9102 59.9219 35.2148C59.5938 35.5117 59.1992 35.7578 58.7383 35.9531C58.2773 36.1406 57.7305 36.2344 57.0977 36.2344C56.293 36.2344 55.5625 36.0742 54.9062 35.7539C54.2578 35.4258 53.7422 34.9766 53.3594 34.4062C52.9844 33.8281 52.7969 33.1719 52.7969 32.4375C52.7969 31.7734 52.9219 31.1836 53.1719 30.668C53.4219 30.1523 53.7891 29.7188 54.2734 29.3672C54.7656 29.0078 55.3789 28.7383 56.1133 28.5586C56.8477 28.3711 57.6992 28.2773 58.668 28.2773H60.625ZM69.4844 26.0273V36H66.1094V23.3203H69.2734L69.4844 26.0273ZM68.9922 29.2148H68.0781C68.0781 28.2773 68.1992 27.4336 68.4414 26.6836C68.6836 25.9258 69.0234 25.2812 69.4609 24.75C69.8984 24.2109 70.418 23.8008 71.0195 23.5195C71.6289 23.2305 72.3086 23.0859 73.0586 23.0859C73.6523 23.0859 74.1953 23.1719 74.6875 23.3438C75.1797 23.5156 75.6016 23.7891 75.9531 24.1641C76.3125 24.5391 76.5859 25.0352 76.7734 25.6523C76.9688 26.2695 77.0664 27.0234 77.0664 27.9141V36H73.668V27.9023C73.668 27.3398 73.5898 26.9023 73.4336 26.5898C73.2773 26.2773 73.0469 26.0586 72.7422 25.9336C72.4453 25.8008 72.0781 25.7344 71.6406 25.7344C71.1875 25.7344 70.793 25.8242 70.457 26.0039C70.1289 26.1836 69.8555 26.4336 69.6367 26.7539C69.4258 27.0664 69.2656 27.4336 69.1562 27.8555C69.0469 28.2773 68.9922 28.7305 68.9922 29.2148ZM79.0938 29.7891V29.543C79.0938 28.6133 79.2266 27.7578 79.4922 26.9766C79.7578 26.1875 80.1445 25.5039 80.6523 24.9258C81.1602 24.3477 81.7852 23.8984 82.5273 23.5781C83.2695 23.25 84.1211 23.0859 85.082 23.0859C86.043 23.0859 86.8984 23.25 87.6484 23.5781C88.3984 23.8984 89.0273 24.3477 89.5352 24.9258C90.0508 25.5039 90.4414 26.1875 90.707 26.9766C90.9727 27.7578 91.1055 28.6133 91.1055 29.543V29.7891C91.1055 30.7109 90.9727 31.5664 90.707 32.3555C90.4414 33.1367 90.0508 33.8203 89.5352 34.4062C89.0273 34.9844 88.4023 35.4336 87.6602 35.7539C86.918 36.0742 86.0664 36.2344 85.1055 36.2344C84.1445 36.2344 83.2891 36.0742 82.5391 35.7539C81.7969 35.4336 81.168 34.9844 80.6523 34.4062C80.1445 33.8203 79.7578 33.1367 79.4922 32.3555C79.2266 31.5664 79.0938 30.7109 79.0938 29.7891ZM82.4688 29.543V29.7891C82.4688 30.3203 82.5156 30.8164 82.6094 31.2773C82.7031 31.7383 82.8516 32.1445 83.0547 32.4961C83.2656 32.8398 83.5391 33.1094 83.875 33.3047C84.2109 33.5 84.6211 33.5977 85.1055 33.5977C85.5742 33.5977 85.9766 33.5 86.3125 33.3047C86.6484 33.1094 86.918 32.8398 87.1211 32.4961C87.3242 32.1445 87.4727 31.7383 87.5664 31.2773C87.668 30.8164 87.7188 30.3203 87.7188 29.7891V29.543C87.7188 29.0273 87.668 28.543 87.5664 28.0898C87.4727 27.6289 87.3203 27.2227 87.1094 26.8711C86.9062 26.5117 86.6367 26.2305 86.3008 26.0273C85.9648 25.8242 85.5586 25.7227 85.082 25.7227C84.6055 25.7227 84.1992 25.8242 83.8633 26.0273C83.5352 26.2305 83.2656 26.5117 83.0547 26.8711C82.8516 27.2227 82.7031 27.6289 82.6094 28.0898C82.5156 28.543 82.4688 29.0273 82.4688 29.543ZM97.4805 36H94.082V22.1953C94.082 21.2344 94.2695 20.4258 94.6445 19.7695C95.0273 19.1055 95.5625 18.6055 96.25 18.2695C96.9453 17.9258 97.7695 17.7539 98.7227 17.7539C99.0352 17.7539 99.3359 17.7773 99.625 17.8242C99.9141 17.8633 100.195 17.9141 100.469 17.9766L100.434 20.5195C100.285 20.4805 100.129 20.4531 99.9648 20.4375C99.8008 20.4219 99.6094 20.4141 99.3906 20.4141C98.9844 20.4141 98.6367 20.4844 98.3477 20.625C98.0664 20.7578 97.8516 20.957 97.7031 21.2227C97.5547 21.4883 97.4805 21.8125 97.4805 22.1953V36ZM100.012 23.3203V25.7109H92.1953V23.3203H100.012ZM108.637 29.918H104.289V27.1758H108.637C109.309 27.1758 109.855 27.0664 110.277 26.8477C110.699 26.6211 111.008 26.3086 111.203 25.9102C111.398 25.5117 111.496 25.0625 111.496 24.5625C111.496 24.0547 111.398 23.582 111.203 23.1445C111.008 22.707 110.699 22.3555 110.277 22.0898C109.855 21.8242 109.309 21.6914 108.637 21.6914H105.508V36H101.992V18.9375H108.637C109.973 18.9375 111.117 19.1797 112.07 19.6641C113.031 20.1406 113.766 20.8008 114.273 21.6445C114.781 22.4883 115.035 23.4531 115.035 24.5391C115.035 25.6406 114.781 26.5938 114.273 27.3984C113.766 28.2031 113.031 28.8242 112.07 29.2617C111.117 29.6992 109.973 29.918 108.637 29.918ZM122.699 36H118.984L119.008 33.2578H122.699C123.621 33.2578 124.398 33.0508 125.031 32.6367C125.664 32.2148 126.141 31.6016 126.461 30.7969C126.789 29.9922 126.953 29.0195 126.953 27.8789V27.0469C126.953 26.1719 126.859 25.4023 126.672 24.7383C126.492 24.0742 126.223 23.5156 125.863 23.0625C125.504 22.6094 125.062 22.2695 124.539 22.043C124.016 21.8086 123.414 21.6914 122.734 21.6914H118.914V18.9375H122.734C123.875 18.9375 124.918 19.1328 125.863 19.5234C126.816 19.9062 127.641 20.457 128.336 21.1758C129.031 21.8945 129.566 22.7539 129.941 23.7539C130.324 24.7461 130.516 25.8516 130.516 27.0703V27.8789C130.516 29.0898 130.324 30.1953 129.941 31.1953C129.566 32.1953 129.031 33.0547 128.336 33.7734C127.648 34.4844 126.824 35.0352 125.863 35.4258C124.91 35.8086 123.855 36 122.699 36ZM120.977 18.9375V36H117.461V18.9375H120.977ZM136.586 18.9375V36H133.07V18.9375H136.586ZM143.383 26.2266V28.9688H135.625V26.2266H143.383ZM144.203 18.9375V21.6914H135.625V18.9375H144.203Z" fill="black"/>
</svg>
